<mxfile host="app.diagrams.net" agent="Mozilla/5.0 (Macintosh; Intel Mac OS X 10_15_7) AppleWebKit/537.36 (KHTML, like Gecko) Chrome/127.0.0.0 Safari/537.36" version="24.7.8" pages="5">
  <diagram name="Initial State" id="LgX0-bwEeIPXN1X5U5mC">
    <mxGraphModel dx="884" dy="834" grid="1" gridSize="10" guides="1" tooltips="1" connect="1" arrows="1" fold="1" page="1" pageScale="1" pageWidth="827" pageHeight="1169" math="0" shadow="0">
      <root>
        <mxCell id="0" />
        <mxCell id="1" parent="0" />
        <mxCell id="TKeJIWV5TckT1qHOQD3M-11" style="edgeStyle=orthogonalEdgeStyle;rounded=0;orthogonalLoop=1;jettySize=auto;html=1;entryX=0;entryY=0.5;entryDx=0;entryDy=0;" edge="1" parent="1" source="TKeJIWV5TckT1qHOQD3M-1" target="TKeJIWV5TckT1qHOQD3M-2">
          <mxGeometry relative="1" as="geometry" />
        </mxCell>
        <mxCell id="TKeJIWV5TckT1qHOQD3M-1" value="&lt;font style=&quot;font-size: 30px;&quot;&gt;A&lt;/font&gt;" style="ellipse;whiteSpace=wrap;html=1;aspect=fixed;" vertex="1" parent="1">
          <mxGeometry x="120" y="150" width="80" height="80" as="geometry" />
        </mxCell>
        <mxCell id="TKeJIWV5TckT1qHOQD3M-12" style="edgeStyle=orthogonalEdgeStyle;rounded=0;orthogonalLoop=1;jettySize=auto;html=1;entryX=0;entryY=0.5;entryDx=0;entryDy=0;" edge="1" parent="1" source="TKeJIWV5TckT1qHOQD3M-2" target="TKeJIWV5TckT1qHOQD3M-6">
          <mxGeometry relative="1" as="geometry" />
        </mxCell>
        <mxCell id="TKeJIWV5TckT1qHOQD3M-2" value="&lt;font style=&quot;font-size: 30px;&quot;&gt;B&lt;/font&gt;" style="ellipse;whiteSpace=wrap;html=1;aspect=fixed;" vertex="1" parent="1">
          <mxGeometry x="280" y="150" width="80" height="80" as="geometry" />
        </mxCell>
        <mxCell id="TKeJIWV5TckT1qHOQD3M-3" value="&lt;font style=&quot;font-size: 30px;&quot;&gt;I&lt;/font&gt;" style="ellipse;whiteSpace=wrap;html=1;aspect=fixed;" vertex="1" parent="1">
          <mxGeometry x="440" y="420" width="80" height="80" as="geometry" />
        </mxCell>
        <mxCell id="TKeJIWV5TckT1qHOQD3M-4" value="&lt;font style=&quot;font-size: 30px;&quot;&gt;E&lt;/font&gt;" style="ellipse;whiteSpace=wrap;html=1;aspect=fixed;" vertex="1" parent="1">
          <mxGeometry x="200" y="280" width="80" height="80" as="geometry" />
        </mxCell>
        <mxCell id="TKeJIWV5TckT1qHOQD3M-5" value="&lt;font style=&quot;font-size: 30px;&quot;&gt;D&lt;/font&gt;" style="ellipse;whiteSpace=wrap;html=1;aspect=fixed;" vertex="1" parent="1">
          <mxGeometry x="360" y="280" width="80" height="80" as="geometry" />
        </mxCell>
        <mxCell id="TKeJIWV5TckT1qHOQD3M-6" value="&lt;font style=&quot;font-size: 30px;&quot;&gt;C&lt;/font&gt;" style="ellipse;whiteSpace=wrap;html=1;aspect=fixed;" vertex="1" parent="1">
          <mxGeometry x="440" y="150" width="80" height="80" as="geometry" />
        </mxCell>
        <mxCell id="TKeJIWV5TckT1qHOQD3M-7" value="&lt;font style=&quot;font-size: 30px;&quot;&gt;G&lt;/font&gt;" style="ellipse;whiteSpace=wrap;html=1;aspect=fixed;" vertex="1" parent="1">
          <mxGeometry x="280" y="420" width="80" height="80" as="geometry" />
        </mxCell>
        <mxCell id="TKeJIWV5TckT1qHOQD3M-8" value="&lt;font style=&quot;font-size: 30px;&quot;&gt;F&lt;/font&gt;" style="ellipse;whiteSpace=wrap;html=1;aspect=fixed;" vertex="1" parent="1">
          <mxGeometry x="120" y="420" width="80" height="80" as="geometry" />
        </mxCell>
        <mxCell id="TKeJIWV5TckT1qHOQD3M-9" value="&lt;font style=&quot;font-size: 30px;&quot;&gt;H&lt;/font&gt;" style="ellipse;whiteSpace=wrap;html=1;aspect=fixed;" vertex="1" parent="1">
          <mxGeometry x="200" y="545" width="80" height="80" as="geometry" />
        </mxCell>
        <mxCell id="TKeJIWV5TckT1qHOQD3M-10" value="&lt;font style=&quot;font-size: 30px;&quot;&gt;J&lt;/font&gt;" style="ellipse;whiteSpace=wrap;html=1;aspect=fixed;" vertex="1" parent="1">
          <mxGeometry x="440" y="545" width="80" height="80" as="geometry" />
        </mxCell>
        <mxCell id="TKeJIWV5TckT1qHOQD3M-14" value="" style="endArrow=classic;html=1;rounded=0;exitX=0.5;exitY=1;exitDx=0;exitDy=0;entryX=1;entryY=0;entryDx=0;entryDy=0;" edge="1" parent="1" source="TKeJIWV5TckT1qHOQD3M-6" target="TKeJIWV5TckT1qHOQD3M-5">
          <mxGeometry width="50" height="50" relative="1" as="geometry">
            <mxPoint x="390" y="410" as="sourcePoint" />
            <mxPoint x="440" y="360" as="targetPoint" />
          </mxGeometry>
        </mxCell>
        <mxCell id="TKeJIWV5TckT1qHOQD3M-15" value="" style="endArrow=classic;html=1;rounded=0;exitX=0;exitY=0;exitDx=0;exitDy=0;entryX=0.5;entryY=1;entryDx=0;entryDy=0;" edge="1" parent="1" source="TKeJIWV5TckT1qHOQD3M-5" target="TKeJIWV5TckT1qHOQD3M-2">
          <mxGeometry width="50" height="50" relative="1" as="geometry">
            <mxPoint x="490" y="240" as="sourcePoint" />
            <mxPoint x="438" y="302" as="targetPoint" />
          </mxGeometry>
        </mxCell>
        <mxCell id="TKeJIWV5TckT1qHOQD3M-16" value="" style="endArrow=classic;html=1;rounded=0;exitX=1;exitY=1;exitDx=0;exitDy=0;entryX=0;entryY=0;entryDx=0;entryDy=0;" edge="1" parent="1" source="TKeJIWV5TckT1qHOQD3M-1" target="TKeJIWV5TckT1qHOQD3M-4">
          <mxGeometry width="50" height="50" relative="1" as="geometry">
            <mxPoint x="382" y="302" as="sourcePoint" />
            <mxPoint x="330" y="240" as="targetPoint" />
          </mxGeometry>
        </mxCell>
        <mxCell id="TKeJIWV5TckT1qHOQD3M-17" value="" style="endArrow=classic;html=1;rounded=0;exitX=1;exitY=0.5;exitDx=0;exitDy=0;entryX=0;entryY=0.5;entryDx=0;entryDy=0;" edge="1" parent="1" source="TKeJIWV5TckT1qHOQD3M-8" target="TKeJIWV5TckT1qHOQD3M-7">
          <mxGeometry width="50" height="50" relative="1" as="geometry">
            <mxPoint x="198" y="228" as="sourcePoint" />
            <mxPoint x="222" y="302" as="targetPoint" />
          </mxGeometry>
        </mxCell>
        <mxCell id="TKeJIWV5TckT1qHOQD3M-18" value="" style="endArrow=classic;html=1;rounded=0;exitX=0.5;exitY=1;exitDx=0;exitDy=0;entryX=1;entryY=0;entryDx=0;entryDy=0;" edge="1" parent="1" source="TKeJIWV5TckT1qHOQD3M-7" target="TKeJIWV5TckT1qHOQD3M-9">
          <mxGeometry width="50" height="50" relative="1" as="geometry">
            <mxPoint x="210" y="470" as="sourcePoint" />
            <mxPoint x="290" y="470" as="targetPoint" />
          </mxGeometry>
        </mxCell>
        <mxCell id="TKeJIWV5TckT1qHOQD3M-19" value="" style="endArrow=classic;html=1;rounded=0;exitX=0;exitY=0;exitDx=0;exitDy=0;entryX=0.5;entryY=1;entryDx=0;entryDy=0;" edge="1" parent="1" source="TKeJIWV5TckT1qHOQD3M-9" target="TKeJIWV5TckT1qHOQD3M-8">
          <mxGeometry width="50" height="50" relative="1" as="geometry">
            <mxPoint x="330" y="510" as="sourcePoint" />
            <mxPoint x="278" y="542" as="targetPoint" />
          </mxGeometry>
        </mxCell>
        <mxCell id="TKeJIWV5TckT1qHOQD3M-20" value="1" style="ellipse;whiteSpace=wrap;html=1;aspect=fixed;fillColor=#d5e8d4;strokeColor=#82b366;" vertex="1" parent="1">
          <mxGeometry x="180" y="150" width="30" height="30" as="geometry" />
        </mxCell>
        <mxCell id="TKeJIWV5TckT1qHOQD3M-21" value="2" style="ellipse;whiteSpace=wrap;html=1;aspect=fixed;fillColor=#d5e8d4;strokeColor=#82b366;" vertex="1" parent="1">
          <mxGeometry x="330" y="150" width="30" height="30" as="geometry" />
        </mxCell>
        <mxCell id="TKeJIWV5TckT1qHOQD3M-22" value="1" style="ellipse;whiteSpace=wrap;html=1;aspect=fixed;fillColor=#d5e8d4;strokeColor=#82b366;" vertex="1" parent="1">
          <mxGeometry x="490" y="150" width="30" height="30" as="geometry" />
        </mxCell>
        <mxCell id="TKeJIWV5TckT1qHOQD3M-23" value="1" style="ellipse;whiteSpace=wrap;html=1;aspect=fixed;fillColor=#d5e8d4;strokeColor=#82b366;" vertex="1" parent="1">
          <mxGeometry x="430" y="305" width="30" height="30" as="geometry" />
        </mxCell>
        <mxCell id="TKeJIWV5TckT1qHOQD3M-24" value="1" style="ellipse;whiteSpace=wrap;html=1;aspect=fixed;fillColor=#d5e8d4;strokeColor=#82b366;" vertex="1" parent="1">
          <mxGeometry x="270" y="305" width="30" height="30" as="geometry" />
        </mxCell>
        <mxCell id="TKeJIWV5TckT1qHOQD3M-25" value="1" style="ellipse;whiteSpace=wrap;html=1;aspect=fixed;fillColor=#d5e8d4;strokeColor=#82b366;" vertex="1" parent="1">
          <mxGeometry x="340" y="420" width="30" height="30" as="geometry" />
        </mxCell>
        <mxCell id="TKeJIWV5TckT1qHOQD3M-26" value="1" style="ellipse;whiteSpace=wrap;html=1;aspect=fixed;fillColor=#d5e8d4;strokeColor=#82b366;" vertex="1" parent="1">
          <mxGeometry x="270" y="570" width="30" height="30" as="geometry" />
        </mxCell>
        <mxCell id="TKeJIWV5TckT1qHOQD3M-27" value="1" style="ellipse;whiteSpace=wrap;html=1;aspect=fixed;fillColor=#d5e8d4;strokeColor=#82b366;" vertex="1" parent="1">
          <mxGeometry x="180" y="410" width="30" height="30" as="geometry" />
        </mxCell>
        <mxCell id="TKeJIWV5TckT1qHOQD3M-28" value="1" style="ellipse;whiteSpace=wrap;html=1;aspect=fixed;fillColor=#d5e8d4;strokeColor=#82b366;" vertex="1" parent="1">
          <mxGeometry x="500" y="420" width="30" height="30" as="geometry" />
        </mxCell>
        <mxCell id="TKeJIWV5TckT1qHOQD3M-29" value="2" style="ellipse;whiteSpace=wrap;html=1;aspect=fixed;fillColor=#d5e8d4;strokeColor=#82b366;" vertex="1" parent="1">
          <mxGeometry x="500" y="545" width="30" height="30" as="geometry" />
        </mxCell>
      </root>
    </mxGraphModel>
  </diagram>
  <diagram id="pLRDSE71GMLw4zErCnkD" name="Decref-find-root">
    <mxGraphModel dx="884" dy="834" grid="1" gridSize="10" guides="1" tooltips="1" connect="1" arrows="1" fold="1" page="1" pageScale="1" pageWidth="827" pageHeight="1169" math="0" shadow="0">
      <root>
        <mxCell id="0" />
        <mxCell id="1" parent="0" />
        <mxCell id="PfSMx9dYPnsdcFuFnz3z-1" style="edgeStyle=orthogonalEdgeStyle;rounded=0;orthogonalLoop=1;jettySize=auto;html=1;entryX=0;entryY=0.5;entryDx=0;entryDy=0;" edge="1" parent="1" source="PfSMx9dYPnsdcFuFnz3z-2" target="PfSMx9dYPnsdcFuFnz3z-4">
          <mxGeometry relative="1" as="geometry" />
        </mxCell>
        <mxCell id="PfSMx9dYPnsdcFuFnz3z-2" value="&lt;font style=&quot;font-size: 30px;&quot;&gt;A&lt;/font&gt;" style="ellipse;whiteSpace=wrap;html=1;aspect=fixed;" vertex="1" parent="1">
          <mxGeometry x="120" y="150" width="80" height="80" as="geometry" />
        </mxCell>
        <mxCell id="PfSMx9dYPnsdcFuFnz3z-3" style="edgeStyle=orthogonalEdgeStyle;rounded=0;orthogonalLoop=1;jettySize=auto;html=1;entryX=0;entryY=0.5;entryDx=0;entryDy=0;" edge="1" parent="1" source="PfSMx9dYPnsdcFuFnz3z-4" target="PfSMx9dYPnsdcFuFnz3z-8">
          <mxGeometry relative="1" as="geometry" />
        </mxCell>
        <mxCell id="PfSMx9dYPnsdcFuFnz3z-4" value="&lt;font style=&quot;font-size: 30px;&quot;&gt;B&lt;/font&gt;" style="ellipse;whiteSpace=wrap;html=1;aspect=fixed;fillColor=#f8cecc;strokeColor=#b85450;" vertex="1" parent="1">
          <mxGeometry x="280" y="150" width="80" height="80" as="geometry" />
        </mxCell>
        <mxCell id="PfSMx9dYPnsdcFuFnz3z-6" value="&lt;font style=&quot;font-size: 30px;&quot;&gt;E&lt;/font&gt;" style="ellipse;whiteSpace=wrap;html=1;aspect=fixed;fillColor=#f8cecc;strokeColor=#b85450;" vertex="1" parent="1">
          <mxGeometry x="200" y="280" width="80" height="80" as="geometry" />
        </mxCell>
        <mxCell id="PfSMx9dYPnsdcFuFnz3z-7" value="&lt;font style=&quot;font-size: 30px;&quot;&gt;D&lt;/font&gt;" style="ellipse;whiteSpace=wrap;html=1;aspect=fixed;fillColor=#f8cecc;strokeColor=#b85450;" vertex="1" parent="1">
          <mxGeometry x="360" y="280" width="80" height="80" as="geometry" />
        </mxCell>
        <mxCell id="PfSMx9dYPnsdcFuFnz3z-8" value="&lt;font style=&quot;font-size: 30px;&quot;&gt;C&lt;/font&gt;" style="ellipse;whiteSpace=wrap;html=1;aspect=fixed;fillColor=#f8cecc;strokeColor=#b85450;" vertex="1" parent="1">
          <mxGeometry x="440" y="150" width="80" height="80" as="geometry" />
        </mxCell>
        <mxCell id="PfSMx9dYPnsdcFuFnz3z-13" value="" style="endArrow=classic;html=1;rounded=0;exitX=0.5;exitY=1;exitDx=0;exitDy=0;entryX=1;entryY=0;entryDx=0;entryDy=0;" edge="1" parent="1" source="PfSMx9dYPnsdcFuFnz3z-8" target="PfSMx9dYPnsdcFuFnz3z-7">
          <mxGeometry width="50" height="50" relative="1" as="geometry">
            <mxPoint x="390" y="410" as="sourcePoint" />
            <mxPoint x="440" y="360" as="targetPoint" />
          </mxGeometry>
        </mxCell>
        <mxCell id="PfSMx9dYPnsdcFuFnz3z-14" value="" style="endArrow=classic;html=1;rounded=0;exitX=0;exitY=0;exitDx=0;exitDy=0;entryX=0.5;entryY=1;entryDx=0;entryDy=0;" edge="1" parent="1" source="PfSMx9dYPnsdcFuFnz3z-7" target="PfSMx9dYPnsdcFuFnz3z-4">
          <mxGeometry width="50" height="50" relative="1" as="geometry">
            <mxPoint x="490" y="240" as="sourcePoint" />
            <mxPoint x="438" y="302" as="targetPoint" />
          </mxGeometry>
        </mxCell>
        <mxCell id="PfSMx9dYPnsdcFuFnz3z-15" value="" style="endArrow=classic;html=1;rounded=0;exitX=1;exitY=1;exitDx=0;exitDy=0;entryX=0;entryY=0;entryDx=0;entryDy=0;" edge="1" parent="1" source="PfSMx9dYPnsdcFuFnz3z-2" target="PfSMx9dYPnsdcFuFnz3z-6">
          <mxGeometry width="50" height="50" relative="1" as="geometry">
            <mxPoint x="382" y="302" as="sourcePoint" />
            <mxPoint x="330" y="240" as="targetPoint" />
          </mxGeometry>
        </mxCell>
        <mxCell id="PfSMx9dYPnsdcFuFnz3z-19" value="1" style="ellipse;whiteSpace=wrap;html=1;aspect=fixed;fillColor=#d5e8d4;strokeColor=#82b366;" vertex="1" parent="1">
          <mxGeometry x="180" y="150" width="30" height="30" as="geometry" />
        </mxCell>
        <mxCell id="PfSMx9dYPnsdcFuFnz3z-20" value="0" style="ellipse;whiteSpace=wrap;html=1;aspect=fixed;fillColor=#d5e8d4;strokeColor=#82b366;" vertex="1" parent="1">
          <mxGeometry x="330" y="150" width="30" height="30" as="geometry" />
        </mxCell>
        <mxCell id="PfSMx9dYPnsdcFuFnz3z-21" value="0" style="ellipse;whiteSpace=wrap;html=1;aspect=fixed;fillColor=#d5e8d4;strokeColor=#82b366;" vertex="1" parent="1">
          <mxGeometry x="490" y="150" width="30" height="30" as="geometry" />
        </mxCell>
        <mxCell id="PfSMx9dYPnsdcFuFnz3z-22" value="0" style="ellipse;whiteSpace=wrap;html=1;aspect=fixed;fillColor=#d5e8d4;strokeColor=#82b366;" vertex="1" parent="1">
          <mxGeometry x="430" y="305" width="30" height="30" as="geometry" />
        </mxCell>
        <mxCell id="PfSMx9dYPnsdcFuFnz3z-23" value="0" style="ellipse;whiteSpace=wrap;html=1;aspect=fixed;fillColor=#d5e8d4;strokeColor=#82b366;" vertex="1" parent="1">
          <mxGeometry x="270" y="305" width="30" height="30" as="geometry" />
        </mxCell>
        <mxCell id="ncmu8jl0ml0PCeG-xB9G-1" value="&lt;font style=&quot;font-size: 30px;&quot;&gt;G&lt;/font&gt;" style="ellipse;whiteSpace=wrap;html=1;aspect=fixed;fillColor=#f8cecc;strokeColor=#b85450;" vertex="1" parent="1">
          <mxGeometry x="280" y="420" width="80" height="80" as="geometry" />
        </mxCell>
        <mxCell id="ncmu8jl0ml0PCeG-xB9G-2" value="&lt;font style=&quot;font-size: 30px;&quot;&gt;F&lt;/font&gt;" style="ellipse;whiteSpace=wrap;html=1;aspect=fixed;fillColor=#f8cecc;strokeColor=#b85450;" vertex="1" parent="1">
          <mxGeometry x="120" y="420" width="80" height="80" as="geometry" />
        </mxCell>
        <mxCell id="ncmu8jl0ml0PCeG-xB9G-3" value="&lt;font style=&quot;font-size: 30px;&quot;&gt;H&lt;/font&gt;" style="ellipse;whiteSpace=wrap;html=1;aspect=fixed;fillColor=#f8cecc;strokeColor=#b85450;" vertex="1" parent="1">
          <mxGeometry x="200" y="545" width="80" height="80" as="geometry" />
        </mxCell>
        <mxCell id="ncmu8jl0ml0PCeG-xB9G-4" value="" style="endArrow=classic;html=1;rounded=0;exitX=1;exitY=0.5;exitDx=0;exitDy=0;entryX=0;entryY=0.5;entryDx=0;entryDy=0;" edge="1" parent="1" source="ncmu8jl0ml0PCeG-xB9G-2" target="ncmu8jl0ml0PCeG-xB9G-1">
          <mxGeometry width="50" height="50" relative="1" as="geometry">
            <mxPoint x="198" y="228" as="sourcePoint" />
            <mxPoint x="222" y="302" as="targetPoint" />
          </mxGeometry>
        </mxCell>
        <mxCell id="ncmu8jl0ml0PCeG-xB9G-5" value="" style="endArrow=classic;html=1;rounded=0;exitX=0.5;exitY=1;exitDx=0;exitDy=0;entryX=1;entryY=0;entryDx=0;entryDy=0;" edge="1" parent="1" source="ncmu8jl0ml0PCeG-xB9G-1" target="ncmu8jl0ml0PCeG-xB9G-3">
          <mxGeometry width="50" height="50" relative="1" as="geometry">
            <mxPoint x="210" y="470" as="sourcePoint" />
            <mxPoint x="290" y="470" as="targetPoint" />
          </mxGeometry>
        </mxCell>
        <mxCell id="ncmu8jl0ml0PCeG-xB9G-6" value="" style="endArrow=classic;html=1;rounded=0;exitX=0;exitY=0;exitDx=0;exitDy=0;entryX=0.5;entryY=1;entryDx=0;entryDy=0;" edge="1" parent="1" source="ncmu8jl0ml0PCeG-xB9G-3" target="ncmu8jl0ml0PCeG-xB9G-2">
          <mxGeometry width="50" height="50" relative="1" as="geometry">
            <mxPoint x="330" y="510" as="sourcePoint" />
            <mxPoint x="278" y="542" as="targetPoint" />
          </mxGeometry>
        </mxCell>
        <mxCell id="ncmu8jl0ml0PCeG-xB9G-7" value="0" style="ellipse;whiteSpace=wrap;html=1;aspect=fixed;fillColor=#d5e8d4;strokeColor=#82b366;" vertex="1" parent="1">
          <mxGeometry x="340" y="420" width="30" height="30" as="geometry" />
        </mxCell>
        <mxCell id="ncmu8jl0ml0PCeG-xB9G-8" value="0" style="ellipse;whiteSpace=wrap;html=1;aspect=fixed;fillColor=#d5e8d4;strokeColor=#82b366;" vertex="1" parent="1">
          <mxGeometry x="270" y="570" width="30" height="30" as="geometry" />
        </mxCell>
        <mxCell id="ncmu8jl0ml0PCeG-xB9G-9" value="0" style="ellipse;whiteSpace=wrap;html=1;aspect=fixed;fillColor=#d5e8d4;strokeColor=#82b366;" vertex="1" parent="1">
          <mxGeometry x="180" y="410" width="30" height="30" as="geometry" />
        </mxCell>
        <mxCell id="soWzdU__vy_0xNH3uUJ1-1" value="&lt;font style=&quot;font-size: 30px;&quot;&gt;I&lt;/font&gt;" style="ellipse;whiteSpace=wrap;html=1;aspect=fixed;" vertex="1" parent="1">
          <mxGeometry x="440" y="420" width="80" height="80" as="geometry" />
        </mxCell>
        <mxCell id="soWzdU__vy_0xNH3uUJ1-2" value="&lt;font style=&quot;font-size: 30px;&quot;&gt;J&lt;/font&gt;" style="ellipse;whiteSpace=wrap;html=1;aspect=fixed;" vertex="1" parent="1">
          <mxGeometry x="440" y="545" width="80" height="80" as="geometry" />
        </mxCell>
        <mxCell id="soWzdU__vy_0xNH3uUJ1-3" value="1" style="ellipse;whiteSpace=wrap;html=1;aspect=fixed;fillColor=#d5e8d4;strokeColor=#82b366;" vertex="1" parent="1">
          <mxGeometry x="500" y="420" width="30" height="30" as="geometry" />
        </mxCell>
        <mxCell id="soWzdU__vy_0xNH3uUJ1-4" value="2" style="ellipse;whiteSpace=wrap;html=1;aspect=fixed;fillColor=#d5e8d4;strokeColor=#82b366;" vertex="1" parent="1">
          <mxGeometry x="500" y="545" width="30" height="30" as="geometry" />
        </mxCell>
      </root>
    </mxGraphModel>
  </diagram>
  <diagram id="Slspng3S7neXEqKaf1ul" name="Restore-ref-markup">
    <mxGraphModel dx="884" dy="834" grid="1" gridSize="10" guides="1" tooltips="1" connect="1" arrows="1" fold="1" page="1" pageScale="1" pageWidth="827" pageHeight="1169" math="0" shadow="0">
      <root>
        <mxCell id="0" />
        <mxCell id="1" parent="0" />
        <mxCell id="5f2yXuLlJdktjmR6fHQB-1" style="edgeStyle=orthogonalEdgeStyle;rounded=0;orthogonalLoop=1;jettySize=auto;html=1;entryX=0;entryY=0.5;entryDx=0;entryDy=0;" edge="1" parent="1" source="5f2yXuLlJdktjmR6fHQB-2" target="5f2yXuLlJdktjmR6fHQB-4">
          <mxGeometry relative="1" as="geometry" />
        </mxCell>
        <mxCell id="5f2yXuLlJdktjmR6fHQB-2" value="&lt;font style=&quot;font-size: 30px;&quot;&gt;A&lt;/font&gt;" style="ellipse;whiteSpace=wrap;html=1;aspect=fixed;" vertex="1" parent="1">
          <mxGeometry x="120" y="150" width="80" height="80" as="geometry" />
        </mxCell>
        <mxCell id="5f2yXuLlJdktjmR6fHQB-3" style="edgeStyle=orthogonalEdgeStyle;rounded=0;orthogonalLoop=1;jettySize=auto;html=1;entryX=0;entryY=0.5;entryDx=0;entryDy=0;" edge="1" parent="1" source="5f2yXuLlJdktjmR6fHQB-4" target="5f2yXuLlJdktjmR6fHQB-8">
          <mxGeometry relative="1" as="geometry" />
        </mxCell>
        <mxCell id="5f2yXuLlJdktjmR6fHQB-4" value="&lt;font style=&quot;font-size: 30px;&quot;&gt;B&lt;/font&gt;" style="ellipse;whiteSpace=wrap;html=1;aspect=fixed;" vertex="1" parent="1">
          <mxGeometry x="280" y="150" width="80" height="80" as="geometry" />
        </mxCell>
        <mxCell id="5f2yXuLlJdktjmR6fHQB-6" value="&lt;font style=&quot;font-size: 30px;&quot;&gt;E&lt;/font&gt;" style="ellipse;whiteSpace=wrap;html=1;aspect=fixed;" vertex="1" parent="1">
          <mxGeometry x="200" y="280" width="80" height="80" as="geometry" />
        </mxCell>
        <mxCell id="5f2yXuLlJdktjmR6fHQB-7" value="&lt;font style=&quot;font-size: 30px;&quot;&gt;D&lt;/font&gt;" style="ellipse;whiteSpace=wrap;html=1;aspect=fixed;" vertex="1" parent="1">
          <mxGeometry x="360" y="280" width="80" height="80" as="geometry" />
        </mxCell>
        <mxCell id="5f2yXuLlJdktjmR6fHQB-8" value="&lt;font style=&quot;font-size: 30px;&quot;&gt;C&lt;/font&gt;" style="ellipse;whiteSpace=wrap;html=1;aspect=fixed;" vertex="1" parent="1">
          <mxGeometry x="440" y="150" width="80" height="80" as="geometry" />
        </mxCell>
        <mxCell id="5f2yXuLlJdktjmR6fHQB-13" value="" style="endArrow=classic;html=1;rounded=0;exitX=0.5;exitY=1;exitDx=0;exitDy=0;entryX=1;entryY=0;entryDx=0;entryDy=0;" edge="1" parent="1" source="5f2yXuLlJdktjmR6fHQB-8" target="5f2yXuLlJdktjmR6fHQB-7">
          <mxGeometry width="50" height="50" relative="1" as="geometry">
            <mxPoint x="390" y="410" as="sourcePoint" />
            <mxPoint x="440" y="360" as="targetPoint" />
          </mxGeometry>
        </mxCell>
        <mxCell id="5f2yXuLlJdktjmR6fHQB-14" value="" style="endArrow=classic;html=1;rounded=0;exitX=0;exitY=0;exitDx=0;exitDy=0;entryX=0.5;entryY=1;entryDx=0;entryDy=0;" edge="1" parent="1" source="5f2yXuLlJdktjmR6fHQB-7" target="5f2yXuLlJdktjmR6fHQB-4">
          <mxGeometry width="50" height="50" relative="1" as="geometry">
            <mxPoint x="490" y="240" as="sourcePoint" />
            <mxPoint x="438" y="302" as="targetPoint" />
          </mxGeometry>
        </mxCell>
        <mxCell id="5f2yXuLlJdktjmR6fHQB-15" value="" style="endArrow=classic;html=1;rounded=0;exitX=1;exitY=1;exitDx=0;exitDy=0;entryX=0;entryY=0;entryDx=0;entryDy=0;" edge="1" parent="1" source="5f2yXuLlJdktjmR6fHQB-2" target="5f2yXuLlJdktjmR6fHQB-6">
          <mxGeometry width="50" height="50" relative="1" as="geometry">
            <mxPoint x="382" y="302" as="sourcePoint" />
            <mxPoint x="330" y="240" as="targetPoint" />
          </mxGeometry>
        </mxCell>
        <mxCell id="5f2yXuLlJdktjmR6fHQB-19" value="1" style="ellipse;whiteSpace=wrap;html=1;aspect=fixed;fillColor=#d5e8d4;strokeColor=#82b366;" vertex="1" parent="1">
          <mxGeometry x="180" y="150" width="30" height="30" as="geometry" />
        </mxCell>
        <mxCell id="5f2yXuLlJdktjmR6fHQB-20" value="2" style="ellipse;whiteSpace=wrap;html=1;aspect=fixed;fillColor=#d5e8d4;strokeColor=#82b366;" vertex="1" parent="1">
          <mxGeometry x="330" y="150" width="30" height="30" as="geometry" />
        </mxCell>
        <mxCell id="5f2yXuLlJdktjmR6fHQB-21" value="1" style="ellipse;whiteSpace=wrap;html=1;aspect=fixed;fillColor=#d5e8d4;strokeColor=#82b366;" vertex="1" parent="1">
          <mxGeometry x="490" y="150" width="30" height="30" as="geometry" />
        </mxCell>
        <mxCell id="5f2yXuLlJdktjmR6fHQB-22" value="1" style="ellipse;whiteSpace=wrap;html=1;aspect=fixed;fillColor=#d5e8d4;strokeColor=#82b366;" vertex="1" parent="1">
          <mxGeometry x="430" y="305" width="30" height="30" as="geometry" />
        </mxCell>
        <mxCell id="5f2yXuLlJdktjmR6fHQB-23" value="1" style="ellipse;whiteSpace=wrap;html=1;aspect=fixed;fillColor=#d5e8d4;strokeColor=#82b366;" vertex="1" parent="1">
          <mxGeometry x="270" y="305" width="30" height="30" as="geometry" />
        </mxCell>
        <mxCell id="CGhR4PcOZFoaxJJA30jr-1" value="&lt;font style=&quot;font-size: 30px;&quot;&gt;G&lt;/font&gt;" style="ellipse;whiteSpace=wrap;html=1;aspect=fixed;fillColor=#f8cecc;strokeColor=#b85450;" vertex="1" parent="1">
          <mxGeometry x="280" y="420" width="80" height="80" as="geometry" />
        </mxCell>
        <mxCell id="CGhR4PcOZFoaxJJA30jr-2" value="&lt;font style=&quot;font-size: 30px;&quot;&gt;F&lt;/font&gt;" style="ellipse;whiteSpace=wrap;html=1;aspect=fixed;fillColor=#f8cecc;strokeColor=#b85450;" vertex="1" parent="1">
          <mxGeometry x="120" y="420" width="80" height="80" as="geometry" />
        </mxCell>
        <mxCell id="CGhR4PcOZFoaxJJA30jr-3" value="&lt;font style=&quot;font-size: 30px;&quot;&gt;H&lt;/font&gt;" style="ellipse;whiteSpace=wrap;html=1;aspect=fixed;fillColor=#f8cecc;strokeColor=#b85450;" vertex="1" parent="1">
          <mxGeometry x="200" y="545" width="80" height="80" as="geometry" />
        </mxCell>
        <mxCell id="CGhR4PcOZFoaxJJA30jr-4" value="" style="endArrow=classic;html=1;rounded=0;exitX=1;exitY=0.5;exitDx=0;exitDy=0;entryX=0;entryY=0.5;entryDx=0;entryDy=0;" edge="1" parent="1" source="CGhR4PcOZFoaxJJA30jr-2" target="CGhR4PcOZFoaxJJA30jr-1">
          <mxGeometry width="50" height="50" relative="1" as="geometry">
            <mxPoint x="198" y="228" as="sourcePoint" />
            <mxPoint x="222" y="302" as="targetPoint" />
          </mxGeometry>
        </mxCell>
        <mxCell id="CGhR4PcOZFoaxJJA30jr-5" value="" style="endArrow=classic;html=1;rounded=0;exitX=0.5;exitY=1;exitDx=0;exitDy=0;entryX=1;entryY=0;entryDx=0;entryDy=0;" edge="1" parent="1" source="CGhR4PcOZFoaxJJA30jr-1" target="CGhR4PcOZFoaxJJA30jr-3">
          <mxGeometry width="50" height="50" relative="1" as="geometry">
            <mxPoint x="210" y="470" as="sourcePoint" />
            <mxPoint x="290" y="470" as="targetPoint" />
          </mxGeometry>
        </mxCell>
        <mxCell id="CGhR4PcOZFoaxJJA30jr-6" value="" style="endArrow=classic;html=1;rounded=0;exitX=0;exitY=0;exitDx=0;exitDy=0;entryX=0.5;entryY=1;entryDx=0;entryDy=0;" edge="1" parent="1" source="CGhR4PcOZFoaxJJA30jr-3" target="CGhR4PcOZFoaxJJA30jr-2">
          <mxGeometry width="50" height="50" relative="1" as="geometry">
            <mxPoint x="330" y="510" as="sourcePoint" />
            <mxPoint x="278" y="542" as="targetPoint" />
          </mxGeometry>
        </mxCell>
        <mxCell id="CGhR4PcOZFoaxJJA30jr-7" value="0" style="ellipse;whiteSpace=wrap;html=1;aspect=fixed;fillColor=#d5e8d4;strokeColor=#82b366;" vertex="1" parent="1">
          <mxGeometry x="340" y="420" width="30" height="30" as="geometry" />
        </mxCell>
        <mxCell id="CGhR4PcOZFoaxJJA30jr-8" value="0" style="ellipse;whiteSpace=wrap;html=1;aspect=fixed;fillColor=#d5e8d4;strokeColor=#82b366;" vertex="1" parent="1">
          <mxGeometry x="270" y="570" width="30" height="30" as="geometry" />
        </mxCell>
        <mxCell id="CGhR4PcOZFoaxJJA30jr-9" value="0" style="ellipse;whiteSpace=wrap;html=1;aspect=fixed;fillColor=#d5e8d4;strokeColor=#82b366;" vertex="1" parent="1">
          <mxGeometry x="180" y="410" width="30" height="30" as="geometry" />
        </mxCell>
        <mxCell id="WxLIGbI8DkNttYwjcOtg-1" value="&lt;font style=&quot;font-size: 30px;&quot;&gt;I&lt;/font&gt;" style="ellipse;whiteSpace=wrap;html=1;aspect=fixed;" vertex="1" parent="1">
          <mxGeometry x="440" y="420" width="80" height="80" as="geometry" />
        </mxCell>
        <mxCell id="WxLIGbI8DkNttYwjcOtg-2" value="&lt;font style=&quot;font-size: 30px;&quot;&gt;J&lt;/font&gt;" style="ellipse;whiteSpace=wrap;html=1;aspect=fixed;" vertex="1" parent="1">
          <mxGeometry x="440" y="545" width="80" height="80" as="geometry" />
        </mxCell>
        <mxCell id="WxLIGbI8DkNttYwjcOtg-3" value="1" style="ellipse;whiteSpace=wrap;html=1;aspect=fixed;fillColor=#d5e8d4;strokeColor=#82b366;" vertex="1" parent="1">
          <mxGeometry x="500" y="420" width="30" height="30" as="geometry" />
        </mxCell>
        <mxCell id="WxLIGbI8DkNttYwjcOtg-4" value="2" style="ellipse;whiteSpace=wrap;html=1;aspect=fixed;fillColor=#d5e8d4;strokeColor=#82b366;" vertex="1" parent="1">
          <mxGeometry x="500" y="545" width="30" height="30" as="geometry" />
        </mxCell>
      </root>
    </mxGraphModel>
  </diagram>
  <diagram id="ioVVA-bDxICGuvMe4TuA" name="CollectCycle">
    <mxGraphModel dx="884" dy="834" grid="1" gridSize="10" guides="1" tooltips="1" connect="1" arrows="1" fold="1" page="1" pageScale="1" pageWidth="827" pageHeight="1169" math="0" shadow="0">
      <root>
        <mxCell id="0" />
        <mxCell id="1" parent="0" />
        <mxCell id="1cO7mJswL-dhzr6Va6ZE-16" value="&lt;font style=&quot;font-size: 30px;&quot;&gt;G&lt;/font&gt;" style="ellipse;whiteSpace=wrap;html=1;aspect=fixed;fillColor=#f8cecc;strokeColor=#b85450;" vertex="1" parent="1">
          <mxGeometry x="320" y="160" width="80" height="80" as="geometry" />
        </mxCell>
        <mxCell id="1cO7mJswL-dhzr6Va6ZE-17" value="&lt;font style=&quot;font-size: 30px;&quot;&gt;F&lt;/font&gt;" style="ellipse;whiteSpace=wrap;html=1;aspect=fixed;fillColor=#f8cecc;strokeColor=#b85450;" vertex="1" parent="1">
          <mxGeometry x="160" y="160" width="80" height="80" as="geometry" />
        </mxCell>
        <mxCell id="1cO7mJswL-dhzr6Va6ZE-18" value="&lt;font style=&quot;font-size: 30px;&quot;&gt;H&lt;/font&gt;" style="ellipse;whiteSpace=wrap;html=1;aspect=fixed;fillColor=#f8cecc;strokeColor=#b85450;" vertex="1" parent="1">
          <mxGeometry x="240" y="285" width="80" height="80" as="geometry" />
        </mxCell>
        <mxCell id="1cO7mJswL-dhzr6Va6ZE-19" value="" style="endArrow=classic;html=1;rounded=0;exitX=1;exitY=0.5;exitDx=0;exitDy=0;entryX=0;entryY=0.5;entryDx=0;entryDy=0;" edge="1" parent="1" source="1cO7mJswL-dhzr6Va6ZE-17" target="1cO7mJswL-dhzr6Va6ZE-16">
          <mxGeometry width="50" height="50" relative="1" as="geometry">
            <mxPoint x="238" y="-32" as="sourcePoint" />
            <mxPoint x="262" y="42" as="targetPoint" />
          </mxGeometry>
        </mxCell>
        <mxCell id="1cO7mJswL-dhzr6Va6ZE-20" value="" style="endArrow=classic;html=1;rounded=0;exitX=0.5;exitY=1;exitDx=0;exitDy=0;entryX=1;entryY=0;entryDx=0;entryDy=0;" edge="1" parent="1" source="1cO7mJswL-dhzr6Va6ZE-16" target="1cO7mJswL-dhzr6Va6ZE-18">
          <mxGeometry width="50" height="50" relative="1" as="geometry">
            <mxPoint x="250" y="210" as="sourcePoint" />
            <mxPoint x="330" y="210" as="targetPoint" />
          </mxGeometry>
        </mxCell>
        <mxCell id="1cO7mJswL-dhzr6Va6ZE-21" value="" style="endArrow=classic;html=1;rounded=0;exitX=0;exitY=0;exitDx=0;exitDy=0;entryX=0.5;entryY=1;entryDx=0;entryDy=0;" edge="1" parent="1" source="1cO7mJswL-dhzr6Va6ZE-18" target="1cO7mJswL-dhzr6Va6ZE-17">
          <mxGeometry width="50" height="50" relative="1" as="geometry">
            <mxPoint x="370" y="250" as="sourcePoint" />
            <mxPoint x="318" y="282" as="targetPoint" />
          </mxGeometry>
        </mxCell>
        <mxCell id="1cO7mJswL-dhzr6Va6ZE-22" value="0" style="ellipse;whiteSpace=wrap;html=1;aspect=fixed;fillColor=#d5e8d4;strokeColor=#82b366;" vertex="1" parent="1">
          <mxGeometry x="380" y="160" width="30" height="30" as="geometry" />
        </mxCell>
        <mxCell id="1cO7mJswL-dhzr6Va6ZE-23" value="0" style="ellipse;whiteSpace=wrap;html=1;aspect=fixed;fillColor=#d5e8d4;strokeColor=#82b366;" vertex="1" parent="1">
          <mxGeometry x="310" y="310" width="30" height="30" as="geometry" />
        </mxCell>
        <mxCell id="1cO7mJswL-dhzr6Va6ZE-24" value="0" style="ellipse;whiteSpace=wrap;html=1;aspect=fixed;fillColor=#d5e8d4;strokeColor=#82b366;" vertex="1" parent="1">
          <mxGeometry x="220" y="150" width="30" height="30" as="geometry" />
        </mxCell>
      </root>
    </mxGraphModel>
  </diagram>
  <diagram id="SggYB76T9uJ6abA6JxWO" name="Done">
    <mxGraphModel dx="884" dy="834" grid="1" gridSize="10" guides="1" tooltips="1" connect="1" arrows="1" fold="1" page="1" pageScale="1" pageWidth="827" pageHeight="1169" math="0" shadow="0">
      <root>
        <mxCell id="0" />
        <mxCell id="1" parent="0" />
        <mxCell id="fwRUm9WFYdXgdiWHsKZJ-1" style="edgeStyle=orthogonalEdgeStyle;rounded=0;orthogonalLoop=1;jettySize=auto;html=1;entryX=0;entryY=0.5;entryDx=0;entryDy=0;" edge="1" parent="1" source="fwRUm9WFYdXgdiWHsKZJ-2" target="fwRUm9WFYdXgdiWHsKZJ-4">
          <mxGeometry relative="1" as="geometry" />
        </mxCell>
        <mxCell id="fwRUm9WFYdXgdiWHsKZJ-2" value="&lt;font style=&quot;font-size: 30px;&quot;&gt;A&lt;/font&gt;" style="ellipse;whiteSpace=wrap;html=1;aspect=fixed;" vertex="1" parent="1">
          <mxGeometry x="120" y="150" width="80" height="80" as="geometry" />
        </mxCell>
        <mxCell id="fwRUm9WFYdXgdiWHsKZJ-3" style="edgeStyle=orthogonalEdgeStyle;rounded=0;orthogonalLoop=1;jettySize=auto;html=1;entryX=0;entryY=0.5;entryDx=0;entryDy=0;" edge="1" parent="1" source="fwRUm9WFYdXgdiWHsKZJ-4" target="fwRUm9WFYdXgdiWHsKZJ-7">
          <mxGeometry relative="1" as="geometry" />
        </mxCell>
        <mxCell id="fwRUm9WFYdXgdiWHsKZJ-4" value="&lt;font style=&quot;font-size: 30px;&quot;&gt;B&lt;/font&gt;" style="ellipse;whiteSpace=wrap;html=1;aspect=fixed;" vertex="1" parent="1">
          <mxGeometry x="280" y="150" width="80" height="80" as="geometry" />
        </mxCell>
        <mxCell id="fwRUm9WFYdXgdiWHsKZJ-5" value="&lt;font style=&quot;font-size: 30px;&quot;&gt;E&lt;/font&gt;" style="ellipse;whiteSpace=wrap;html=1;aspect=fixed;" vertex="1" parent="1">
          <mxGeometry x="200" y="280" width="80" height="80" as="geometry" />
        </mxCell>
        <mxCell id="fwRUm9WFYdXgdiWHsKZJ-6" value="&lt;font style=&quot;font-size: 30px;&quot;&gt;D&lt;/font&gt;" style="ellipse;whiteSpace=wrap;html=1;aspect=fixed;" vertex="1" parent="1">
          <mxGeometry x="360" y="280" width="80" height="80" as="geometry" />
        </mxCell>
        <mxCell id="fwRUm9WFYdXgdiWHsKZJ-7" value="&lt;font style=&quot;font-size: 30px;&quot;&gt;C&lt;/font&gt;" style="ellipse;whiteSpace=wrap;html=1;aspect=fixed;" vertex="1" parent="1">
          <mxGeometry x="440" y="150" width="80" height="80" as="geometry" />
        </mxCell>
        <mxCell id="fwRUm9WFYdXgdiWHsKZJ-8" value="" style="endArrow=classic;html=1;rounded=0;exitX=0.5;exitY=1;exitDx=0;exitDy=0;entryX=1;entryY=0;entryDx=0;entryDy=0;" edge="1" parent="1" source="fwRUm9WFYdXgdiWHsKZJ-7" target="fwRUm9WFYdXgdiWHsKZJ-6">
          <mxGeometry width="50" height="50" relative="1" as="geometry">
            <mxPoint x="390" y="410" as="sourcePoint" />
            <mxPoint x="440" y="360" as="targetPoint" />
          </mxGeometry>
        </mxCell>
        <mxCell id="fwRUm9WFYdXgdiWHsKZJ-9" value="" style="endArrow=classic;html=1;rounded=0;exitX=0;exitY=0;exitDx=0;exitDy=0;entryX=0.5;entryY=1;entryDx=0;entryDy=0;" edge="1" parent="1" source="fwRUm9WFYdXgdiWHsKZJ-6" target="fwRUm9WFYdXgdiWHsKZJ-4">
          <mxGeometry width="50" height="50" relative="1" as="geometry">
            <mxPoint x="490" y="240" as="sourcePoint" />
            <mxPoint x="438" y="302" as="targetPoint" />
          </mxGeometry>
        </mxCell>
        <mxCell id="fwRUm9WFYdXgdiWHsKZJ-10" value="" style="endArrow=classic;html=1;rounded=0;exitX=1;exitY=1;exitDx=0;exitDy=0;entryX=0;entryY=0;entryDx=0;entryDy=0;" edge="1" parent="1" source="fwRUm9WFYdXgdiWHsKZJ-2" target="fwRUm9WFYdXgdiWHsKZJ-5">
          <mxGeometry width="50" height="50" relative="1" as="geometry">
            <mxPoint x="382" y="302" as="sourcePoint" />
            <mxPoint x="330" y="240" as="targetPoint" />
          </mxGeometry>
        </mxCell>
        <mxCell id="fwRUm9WFYdXgdiWHsKZJ-11" value="1" style="ellipse;whiteSpace=wrap;html=1;aspect=fixed;fillColor=#d5e8d4;strokeColor=#82b366;" vertex="1" parent="1">
          <mxGeometry x="180" y="150" width="30" height="30" as="geometry" />
        </mxCell>
        <mxCell id="fwRUm9WFYdXgdiWHsKZJ-12" value="2" style="ellipse;whiteSpace=wrap;html=1;aspect=fixed;fillColor=#d5e8d4;strokeColor=#82b366;" vertex="1" parent="1">
          <mxGeometry x="330" y="150" width="30" height="30" as="geometry" />
        </mxCell>
        <mxCell id="fwRUm9WFYdXgdiWHsKZJ-13" value="1" style="ellipse;whiteSpace=wrap;html=1;aspect=fixed;fillColor=#d5e8d4;strokeColor=#82b366;" vertex="1" parent="1">
          <mxGeometry x="490" y="150" width="30" height="30" as="geometry" />
        </mxCell>
        <mxCell id="fwRUm9WFYdXgdiWHsKZJ-14" value="1" style="ellipse;whiteSpace=wrap;html=1;aspect=fixed;fillColor=#d5e8d4;strokeColor=#82b366;" vertex="1" parent="1">
          <mxGeometry x="430" y="305" width="30" height="30" as="geometry" />
        </mxCell>
        <mxCell id="fwRUm9WFYdXgdiWHsKZJ-15" value="1" style="ellipse;whiteSpace=wrap;html=1;aspect=fixed;fillColor=#d5e8d4;strokeColor=#82b366;" vertex="1" parent="1">
          <mxGeometry x="270" y="305" width="30" height="30" as="geometry" />
        </mxCell>
        <mxCell id="fwRUm9WFYdXgdiWHsKZJ-25" value="&lt;font style=&quot;font-size: 30px;&quot;&gt;I&lt;/font&gt;" style="ellipse;whiteSpace=wrap;html=1;aspect=fixed;" vertex="1" parent="1">
          <mxGeometry x="440" y="420" width="80" height="80" as="geometry" />
        </mxCell>
        <mxCell id="fwRUm9WFYdXgdiWHsKZJ-26" value="&lt;font style=&quot;font-size: 30px;&quot;&gt;J&lt;/font&gt;" style="ellipse;whiteSpace=wrap;html=1;aspect=fixed;" vertex="1" parent="1">
          <mxGeometry x="440" y="545" width="80" height="80" as="geometry" />
        </mxCell>
        <mxCell id="fwRUm9WFYdXgdiWHsKZJ-27" value="1" style="ellipse;whiteSpace=wrap;html=1;aspect=fixed;fillColor=#d5e8d4;strokeColor=#82b366;" vertex="1" parent="1">
          <mxGeometry x="500" y="420" width="30" height="30" as="geometry" />
        </mxCell>
        <mxCell id="fwRUm9WFYdXgdiWHsKZJ-28" value="2" style="ellipse;whiteSpace=wrap;html=1;aspect=fixed;fillColor=#d5e8d4;strokeColor=#82b366;" vertex="1" parent="1">
          <mxGeometry x="500" y="545" width="30" height="30" as="geometry" />
        </mxCell>
      </root>
    </mxGraphModel>
  </diagram>
</mxfile>
